<svg width="96" height="95" viewBox="0 0 96 95" fill="none" xmlns="http://www.w3.org/2000/svg">
<g clip-path="url(#clip0)">
<path d="M92.8361 77.8696C79.4091 102.54 20.7061 99.9557 4.7587 74.0339C-11.1887 48.0716 15.6653 -1.22829 45.0397 0.0233861C74.4141 1.31544 106.263 53.1995 92.8361 77.8696Z" fill="#EEF4ED"/>
<path d="M59.0898 58.4102C57.7539 57.0742 56.2324 56.666 54.5254 57.1855L50.9629 53.623C54.1543 49.6895 55.75 45.2734 55.75 40.375C55.75 34.4375 53.6719 29.3906 49.5156 25.2344C45.3594 21.0781 40.3125 19 34.375 19C28.4375 19 23.3906 21.0781 19.2344 25.2344C15.0781 29.3906 13 34.4375 13 40.375C13 46.3125 15.0781 51.3594 19.2344 55.5156C23.3906 59.6719 28.4375 61.75 34.375 61.75C39.5703 61.75 43.9863 60.1543 47.623 56.9629L51.1855 60.5254C50.7402 62.3066 51.1484 63.8281 52.4102 65.0898L61.873 74.5527C62.8379 75.5176 63.9512 76 65.2129 76C66.5488 76 67.6621 75.5176 68.5527 74.5527C69.5176 73.5879 70 72.4746 70 71.2129C70 69.9512 69.5176 68.8379 68.5527 67.873L59.0898 58.4102ZM34.375 56.9629C29.7734 56.9629 25.8584 55.3486 22.6299 52.1201C19.4014 48.8916 17.7871 44.9766 17.7871 40.375C17.7871 35.7734 19.4014 31.8584 22.6299 28.6299C25.8584 25.4014 29.7734 23.7871 34.375 23.7871C38.9766 23.7871 42.8916 25.4014 46.1201 28.6299C49.3486 31.8584 50.9629 35.7734 50.9629 40.375C50.9629 44.9766 49.3486 48.8916 46.1201 52.1201C42.8916 55.3486 38.9766 56.9629 34.375 56.9629Z" fill="#FCCA46"/>
</g>
<defs>
<clipPath id="clip0">
<rect width="96" height="95" fill="white"/>
</clipPath>
</defs>
</svg>
