<svg width="127" height="127" viewBox="0 0 127 127" fill="none" xmlns="http://www.w3.org/2000/svg">
<path d="M7.90594 121V104.896H10.8539V111.628H12.1519L16.2439 104.896H19.8299L14.9019 112.97L19.8299 121H16.2439L12.1519 114.356H10.8759V121H7.90594ZM21.2144 115.104C21.2144 114.092 21.2731 113.249 21.3904 112.574C21.5224 111.885 21.7057 111.32 21.9404 110.88C22.1751 110.425 22.5051 110.081 22.9304 109.846C23.3557 109.611 23.8251 109.45 24.3384 109.362C24.8664 109.274 25.5264 109.23 26.3184 109.23C26.8464 109.23 27.2937 109.245 27.6604 109.274C28.0271 109.289 28.3937 109.333 28.7604 109.406C29.1417 109.465 29.4497 109.56 29.6844 109.692C29.9191 109.809 30.1464 109.978 30.3664 110.198C30.5864 110.403 30.7551 110.66 30.8724 110.968C31.0044 111.261 31.0997 111.621 31.1584 112.046C31.2317 112.457 31.2684 112.933 31.2684 113.476C31.2684 114.503 30.9971 115.251 30.4544 115.72C29.9117 116.189 29.0977 116.424 28.0124 116.424H24.2944C24.2944 117.099 24.3897 117.605 24.5804 117.942C24.7857 118.265 25.0351 118.463 25.3284 118.536C25.6364 118.609 26.1131 118.646 26.7584 118.646C28.5624 118.646 29.9924 118.565 31.0484 118.404V120.494C29.9484 120.905 27.9537 121.11 25.0644 121.11C24.3164 121.11 23.6931 121 23.1944 120.78C22.7104 120.56 22.3217 120.201 22.0284 119.702C21.7351 119.203 21.5224 118.587 21.3904 117.854C21.2731 117.121 21.2144 116.204 21.2144 115.104ZM24.2944 114.202H27.2204C27.8657 114.202 28.1884 113.909 28.1884 113.322C28.1884 112.589 28.0857 112.119 27.8804 111.914C27.6897 111.694 27.2277 111.584 26.4944 111.584C26.0251 111.584 25.6731 111.606 25.4384 111.65C25.2184 111.679 24.9984 111.782 24.7784 111.958C24.5731 112.119 24.4337 112.376 24.3604 112.728C24.3017 113.08 24.2797 113.571 24.2944 114.202ZM32.773 115.104C32.773 114.092 32.8317 113.249 32.949 112.574C33.081 111.885 33.2643 111.32 33.499 110.88C33.7337 110.425 34.0637 110.081 34.489 109.846C34.9143 109.611 35.3837 109.45 35.897 109.362C36.425 109.274 37.085 109.23 37.877 109.23C38.405 109.23 38.8523 109.245 39.219 109.274C39.5857 109.289 39.9523 109.333 40.319 109.406C40.7003 109.465 41.0083 109.56 41.243 109.692C41.4777 109.809 41.705 109.978 41.925 110.198C42.145 110.403 42.3137 110.66 42.431 110.968C42.563 111.261 42.6583 111.621 42.717 112.046C42.7903 112.457 42.827 112.933 42.827 113.476C42.827 114.503 42.5557 115.251 42.013 115.72C41.4703 116.189 40.6563 116.424 39.571 116.424H35.853C35.853 117.099 35.9483 117.605 36.139 117.942C36.3443 118.265 36.5937 118.463 36.887 118.536C37.195 118.609 37.6717 118.646 38.317 118.646C40.121 118.646 41.551 118.565 42.607 118.404V120.494C41.507 120.905 39.5123 121.11 36.623 121.11C35.875 121.11 35.2517 121 34.753 120.78C34.269 120.56 33.8803 120.201 33.587 119.702C33.2937 119.203 33.081 118.587 32.949 117.854C32.8317 117.121 32.773 116.204 32.773 115.104ZM35.853 114.202H38.779C39.4243 114.202 39.747 113.909 39.747 113.322C39.747 112.589 39.6443 112.119 39.439 111.914C39.2483 111.694 38.7863 111.584 38.053 111.584C37.5837 111.584 37.2317 111.606 36.997 111.65C36.777 111.679 36.557 111.782 36.337 111.958C36.1317 112.119 35.9923 112.376 35.919 112.728C35.8603 113.08 35.8383 113.571 35.853 114.202ZM44.5076 126.94V109.318H47.0376L47.5656 110.484C47.9909 110.147 48.5262 109.846 49.1716 109.582C49.8316 109.318 50.4769 109.186 51.1076 109.186C51.6796 109.186 52.1782 109.281 52.6036 109.472C53.0436 109.663 53.4029 109.927 53.6816 110.264C53.9749 110.601 54.2169 111.019 54.4076 111.518C54.5982 112.017 54.7302 112.559 54.8036 113.146C54.8769 113.733 54.9136 114.385 54.9136 115.104C54.9136 115.705 54.8916 116.248 54.8476 116.732C54.8182 117.216 54.7522 117.7 54.6496 118.184C54.5469 118.653 54.4002 119.064 54.2096 119.416C54.0336 119.768 53.8062 120.083 53.5276 120.362C53.2636 120.626 52.9262 120.831 52.5156 120.978C52.1049 121.11 51.6356 121.176 51.1076 121.176C50.5796 121.176 49.9856 121.11 49.3256 120.978C48.6656 120.831 48.0789 120.648 47.5656 120.428V126.94H44.5076ZM47.5656 118.316C48.3282 118.609 49.2449 118.756 50.3156 118.756C50.6676 118.756 50.9462 118.675 51.1516 118.514C51.3569 118.338 51.5182 117.986 51.6356 117.458C51.7676 116.93 51.8336 116.189 51.8336 115.236C51.8336 113.975 51.7089 113.095 51.4596 112.596C51.2102 112.083 50.8289 111.826 50.3156 111.826C49.2302 111.826 48.3136 112.061 47.5656 112.53V118.316Z" fill="#233D4D"/>
<path d="M63.9745 110.308V108.922C63.9745 108.306 64.0478 107.756 64.1945 107.272C64.3412 106.788 64.5392 106.392 64.7885 106.084C65.0378 105.776 65.3458 105.527 65.7125 105.336C66.0938 105.131 66.4898 104.991 66.9005 104.918C67.3258 104.83 67.8025 104.779 68.3305 104.764C69.4452 104.735 70.5965 104.786 71.7845 104.918C72.9725 105.05 73.8965 105.211 74.5565 105.402V107.822C72.8845 107.675 71.0878 107.602 69.1665 107.602C68.3892 107.587 67.8392 107.675 67.5165 107.866C67.2085 108.042 67.0545 108.475 67.0545 109.164V109.956C67.0545 110.572 67.1792 110.983 67.4285 111.188C67.6778 111.393 68.1252 111.496 68.7705 111.496H71.3225C71.7038 111.496 72.0558 111.533 72.3785 111.606C72.7158 111.679 73.0018 111.782 73.2365 111.914C73.4858 112.046 73.7058 112.2 73.8965 112.376C74.1018 112.552 74.2705 112.75 74.4025 112.97C74.5492 113.19 74.6665 113.417 74.7545 113.652C74.8572 113.872 74.9305 114.107 74.9745 114.356C75.0332 114.605 75.0698 114.847 75.0845 115.082C75.1138 115.302 75.1285 115.529 75.1285 115.764V116.842C75.1285 117.546 75.0405 118.162 74.8645 118.69C74.6885 119.218 74.4612 119.636 74.1825 119.944C73.9185 120.252 73.5812 120.501 73.1705 120.692C72.7745 120.883 72.3785 121.007 71.9825 121.066C71.5865 121.139 71.1538 121.176 70.6845 121.176C68.0298 121.176 65.9545 120.956 64.4585 120.516V118.096C66.0718 118.257 67.9418 118.338 70.0685 118.338C70.3472 118.338 70.5818 118.323 70.7725 118.294C70.9778 118.265 71.1832 118.206 71.3885 118.118C71.6085 118.03 71.7698 117.891 71.8725 117.7C71.9898 117.495 72.0485 117.245 72.0485 116.952V116.094C72.0485 115.581 71.9458 115.199 71.7405 114.95C71.5352 114.701 71.1538 114.576 70.5965 114.576H68.1325C65.3605 114.561 63.9745 113.139 63.9745 110.308ZM76.687 115.104C76.687 114.092 76.7457 113.249 76.863 112.574C76.995 111.885 77.1784 111.32 77.413 110.88C77.6477 110.425 77.9777 110.081 78.403 109.846C78.8284 109.611 79.2977 109.45 79.811 109.362C80.339 109.274 80.999 109.23 81.791 109.23C82.319 109.23 82.7664 109.245 83.133 109.274C83.4997 109.289 83.8664 109.333 84.233 109.406C84.6144 109.465 84.9224 109.56 85.157 109.692C85.3917 109.809 85.619 109.978 85.839 110.198C86.059 110.403 86.2277 110.66 86.345 110.968C86.477 111.261 86.5724 111.621 86.631 112.046C86.7044 112.457 86.741 112.933 86.741 113.476C86.741 114.503 86.4697 115.251 85.927 115.72C85.3844 116.189 84.5704 116.424 83.485 116.424H79.767C79.767 117.099 79.8624 117.605 80.053 117.942C80.2584 118.265 80.5077 118.463 80.801 118.536C81.109 118.609 81.5857 118.646 82.231 118.646C84.035 118.646 85.465 118.565 86.521 118.404V120.494C85.421 120.905 83.4264 121.11 80.537 121.11C79.789 121.11 79.1657 121 78.667 120.78C78.183 120.56 77.7944 120.201 77.501 119.702C77.2077 119.203 76.995 118.587 76.863 117.854C76.7457 117.121 76.687 116.204 76.687 115.104ZM79.767 114.202H82.693C83.3384 114.202 83.661 113.909 83.661 113.322C83.661 112.589 83.5584 112.119 83.353 111.914C83.1624 111.694 82.7004 111.584 81.967 111.584C81.4977 111.584 81.1457 111.606 80.911 111.65C80.691 111.679 80.471 111.782 80.251 111.958C80.0457 112.119 79.9064 112.376 79.833 112.728C79.7744 113.08 79.7524 113.571 79.767 114.202ZM88.2456 115.148C88.2456 113.975 88.3336 112.992 88.5096 112.2C88.7003 111.393 88.9716 110.785 89.3236 110.374C89.6903 109.949 90.0936 109.648 90.5336 109.472C90.9736 109.296 91.4943 109.208 92.0956 109.208C94.2516 109.208 96.041 109.435 97.4636 109.89V111.804C96.0703 111.716 94.721 111.672 93.4156 111.672C93.0636 111.672 92.7996 111.687 92.6236 111.716C92.4623 111.745 92.279 111.819 92.0736 111.936C91.8683 112.053 91.7216 112.237 91.6336 112.486C91.5456 112.735 91.4723 113.08 91.4136 113.52C91.355 113.96 91.3256 114.525 91.3256 115.214C91.3256 116.211 91.3916 116.952 91.5236 117.436C91.6703 117.92 91.8756 118.243 92.1396 118.404C92.4183 118.551 92.8436 118.624 93.4156 118.624C94.017 118.624 94.6696 118.609 95.3736 118.58C96.0776 118.551 96.6276 118.514 97.0236 118.47L97.6176 118.426V120.362C97.295 120.523 96.965 120.663 96.6276 120.78C96.2903 120.883 95.8796 120.956 95.3956 121C94.9263 121.044 94.589 121.073 94.3836 121.088C94.193 121.103 93.7823 121.11 93.1516 121.11C92.521 121.11 92.169 121.11 92.0956 121.11C90.4236 121.11 89.309 120.347 88.7516 118.822C88.4143 117.898 88.2456 116.673 88.2456 115.148ZM99.2927 121V109.318H101.889L102.373 110.792C103.473 109.736 104.587 109.208 105.717 109.208C106.347 109.208 106.78 109.252 107.015 109.34V112.31C106.604 112.266 106.039 112.244 105.321 112.244C104.631 112.244 104.052 112.339 103.583 112.53C103.128 112.706 102.725 113.043 102.373 113.542V121H99.2927ZM108.291 115.104C108.291 114.092 108.349 113.249 108.467 112.574C108.599 111.885 108.782 111.32 109.017 110.88C109.251 110.425 109.581 110.081 110.007 109.846C110.432 109.611 110.901 109.45 111.415 109.362C111.943 109.274 112.603 109.23 113.395 109.23C113.923 109.23 114.37 109.245 114.737 109.274C115.103 109.289 115.47 109.333 115.837 109.406C116.218 109.465 116.526 109.56 116.761 109.692C116.995 109.809 117.223 109.978 117.443 110.198C117.663 110.403 117.831 110.66 117.949 110.968C118.081 111.261 118.176 111.621 118.235 112.046C118.308 112.457 118.345 112.933 118.345 113.476C118.345 114.503 118.073 115.251 117.531 115.72C116.988 116.189 116.174 116.424 115.089 116.424H111.371C111.371 117.099 111.466 117.605 111.657 117.942C111.862 118.265 112.111 118.463 112.405 118.536C112.713 118.609 113.189 118.646 113.835 118.646C115.639 118.646 117.069 118.565 118.125 118.404V120.494C117.025 120.905 115.03 121.11 112.141 121.11C111.393 121.11 110.769 121 110.271 120.78C109.787 120.56 109.398 120.201 109.105 119.702C108.811 119.203 108.599 118.587 108.467 117.854C108.349 117.121 108.291 116.204 108.291 115.104ZM111.371 114.202H114.297C114.942 114.202 115.265 113.909 115.265 113.322C115.265 112.589 115.162 112.119 114.957 111.914C114.766 111.694 114.304 111.584 113.571 111.584C113.101 111.584 112.749 111.606 112.515 111.65C112.295 111.679 112.075 111.782 111.855 111.958C111.649 112.119 111.51 112.376 111.437 112.728C111.378 113.08 111.356 113.571 111.371 114.202ZM119.365 111.65V109.934L121.257 109.296L121.763 106.04H124.337V109.296H126.955V111.65H124.337V116.336C124.337 116.879 124.381 117.319 124.469 117.656C124.557 117.979 124.667 118.206 124.799 118.338C124.931 118.455 125.107 118.558 125.327 118.646C126.207 118.954 126.698 119.108 126.801 119.108V121H124.117C123.208 121 122.504 120.677 122.005 120.032C121.506 119.372 121.257 118.301 121.257 116.82V111.65H119.365Z" fill="#285977"/>
<path d="M106.771 0C103.317 0 100.006 1.21819 97.5637 3.38658C95.1218 5.55497 93.75 8.49593 93.75 11.5625V13.875C92.3687 13.875 91.0439 14.3623 90.0671 15.2296C89.0904 16.097 88.5417 17.2734 88.5417 18.5V37C88.5417 38.2266 89.0904 39.403 90.0671 40.2704C91.0439 41.1377 92.3687 41.625 93.75 41.625H119.792C121.173 41.625 122.498 41.1377 123.475 40.2704C124.451 39.403 125 38.2266 125 37V18.5C125 17.2734 124.451 16.097 123.475 15.2296C122.498 14.3623 121.173 13.875 119.792 13.875V11.5625C119.792 8.49593 118.42 5.55497 115.978 3.38658C113.536 1.21819 110.224 0 106.771 0ZM106.771 4.625C108.843 4.625 110.83 5.35591 112.295 6.65695C113.76 7.95798 114.583 9.72256 114.583 11.5625V13.875H98.9583V11.5625C98.9583 9.72256 99.7814 7.95798 101.247 6.65695C102.712 5.35591 104.699 4.625 106.771 4.625ZM20.8333 9.25C18.0707 9.25 15.4211 10.2246 13.4676 11.9593C11.5141 13.694 10.4167 16.0467 10.4167 18.5V101.75L31.25 83.25H104.167C106.929 83.25 109.579 82.2754 111.532 80.5407C113.486 78.806 114.583 76.4533 114.583 74V50.875H88.5417C82.7604 50.875 78.125 46.7588 78.125 41.625V9.25H20.8333Z" fill="#233D4D"/>
</svg>
