<svg width="46" height="46" viewBox="0 0 46 46" fill="none" xmlns="http://www.w3.org/2000/svg">
<rect width="46" height="46" rx="10" fill="#F7F7F7"/>
<g filter="url(#filter0_d)">
<path d="M27.9192 15.9192C28.4269 15.4116 28.4269 14.5884 27.9192 14.0808C27.4116 13.5731 26.5884 13.5731 26.0808 14.0808L27.9192 15.9192ZM19 23L18.0808 22.0808L17.1615 23L18.0808 23.9192L19 23ZM26.0808 31.9192C26.5884 32.4269 27.4116 32.4269 27.9192 31.9192C28.4269 31.4116 28.4269 30.5884 27.9192 30.0808L26.0808 31.9192ZM26.0808 14.0808L18.0808 22.0808L19.9192 23.9192L27.9192 15.9192L26.0808 14.0808ZM18.0808 23.9192L26.0808 31.9192L27.9192 30.0808L19.9192 22.0808L18.0808 23.9192Z" fill="black"/>
</g>
<defs>
<filter id="filter0_d" x="10.1615" y="13.7" width="19.1385" height="26.6" filterUnits="userSpaceOnUse" color-interpolation-filters="sRGB">
<feFlood flood-opacity="0" result="BackgroundImageFix"/>
<feColorMatrix in="SourceAlpha" type="matrix" values="0 0 0 0 0 0 0 0 0 0 0 0 0 0 0 0 0 0 127 0"/>
<feOffset dx="-3" dy="4"/>
<feGaussianBlur stdDeviation="2"/>
<feColorMatrix type="matrix" values="0 0 0 0 0.129412 0 0 0 0 0.152941 0 0 0 0 0.25098 0 0 0 0.2 0"/>
<feBlend mode="normal" in2="BackgroundImageFix" result="effect1_dropShadow"/>
<feBlend mode="normal" in="SourceGraphic" in2="effect1_dropShadow" result="shape"/>
</filter>
</defs>
</svg>
