<svg width="96" height="95" viewBox="0 0 96 95" fill="none" xmlns="http://www.w3.org/2000/svg">
<g clip-path="url(#clip0)">
<path d="M92.8361 77.8696C79.4091 102.54 20.7061 99.9557 4.7587 74.0339C-11.1887 48.0716 15.6653 -1.22829 45.0397 0.0233861C74.4141 1.31544 106.263 53.1995 92.8361 77.8696Z" fill="#E3EDF7"/>
<path d="M50 15C45.125 15 40.9062 16.6823 37.3438 20.0469C33.7812 23.4115 32 27.3958 32 32V40.5C29.4688 40.5 27.3359 41.319 25.6016 42.957C23.8672 44.5951 23 46.6094 23 49V74.5C23 76.8906 23.8672 78.9049 25.6016 80.543C27.3359 82.181 29.4688 83 32 83H68C70.5312 83 72.6641 82.181 74.3984 80.543C76.1328 78.9049 77 76.8906 77 74.5V49C77 46.6094 76.1328 44.5951 74.3984 42.957C72.6641 41.319 70.5312 40.5 68 40.5V32C68 27.3958 66.2188 23.4115 62.6562 20.0469C59.0938 16.6823 54.875 15 50 15ZM70.9531 49V74.5C70.9531 76.3594 69.9688 77.2891 68 77.2891H32C30.0312 77.2891 29.0469 76.3594 29.0469 74.5V49C29.0469 47.1406 30.0312 46.2109 32 46.2109H68C69.9688 46.2109 70.9531 47.1406 70.9531 49ZM38.0469 40.5V32C38.0469 28.901 39.2188 26.2448 41.5625 24.0312C43.9062 21.8177 46.7188 20.7109 50 20.7109C53.2812 20.7109 56.0938 21.8177 58.4375 24.0312C60.7812 26.2448 61.9531 28.901 61.9531 32V40.5H38.0469ZM50 49C47.4688 49 45.3359 49.819 43.6016 51.457C41.8672 53.0951 41 55.1094 41 57.5C41 59.2708 41.5625 60.8867 42.6875 62.3477C43.8125 63.8086 45.2656 64.849 47.0469 65.4688V68.7891C47.0469 70.737 48.0312 71.7109 50 71.7109C51.9688 71.7109 52.9531 70.737 52.9531 68.7891V65.4688C56.9844 64.1406 59 61.4844 59 57.5C59 55.1094 58.1328 53.0951 56.3984 51.457C54.6641 49.819 52.5312 49 50 49ZM50 60.2891C48.0312 60.2891 47.0469 59.3594 47.0469 57.5C47.0469 55.6406 48.0312 54.7109 50 54.7109C51.9688 54.7109 52.9531 55.6406 52.9531 57.5C52.9531 59.3594 51.9688 60.2891 50 60.2891Z" fill="#FCCA46"/>
</g>
<defs>
<clipPath id="clip0">
<rect width="96" height="95" fill="white"/>
</clipPath>
</defs>
</svg>
